<?xml version="1.0" encoding="UTF-8" standalone="no"?>
<!-- Created with Inkscape (http://www.inkscape.org/) -->

<svg
   xmlns:dc="http://purl.org/dc/elements/1.1/"
   xmlns:cc="http://creativecommons.org/ns#"
   xmlns:rdf="http://www.w3.org/1999/02/22-rdf-syntax-ns#"
   xmlns:svg="http://www.w3.org/2000/svg"
   xmlns="http://www.w3.org/2000/svg"
   xmlns:sodipodi="http://sodipodi.sourceforge.net/DTD/sodipodi-0.dtd"
   xmlns:inkscape="http://www.inkscape.org/namespaces/inkscape"
   id="svg3252"
   width="20"
   height="22"
   version="1.0"
   sodipodi:docname="brasero-disc-05.svg"
   inkscape:version="0.92.4 (33fec40, 2019-01-16)">
  <defs
     id="defs10895" />
  <sodipodi:namedview
     pagecolor="#ffffff"
     bordercolor="#666666"
     borderopacity="1"
     objecttolerance="10"
     gridtolerance="10"
     guidetolerance="10"
     inkscape:pageopacity="0"
     inkscape:pageshadow="2"
     inkscape:window-width="1920"
     inkscape:window-height="1016"
     id="namedview10893"
     showgrid="false"
     inkscape:zoom="10.727273"
     inkscape:cx="10"
     inkscape:cy="-0.18644068"
     inkscape:window-x="0"
     inkscape:window-y="27"
     inkscape:window-maximized="1"
     inkscape:current-layer="svg3252" />
  <metadata
     id="metadata11">
    <rdf:RDF>
      <cc:Work
         rdf:about="">
        <dc:format>image/svg+xml</dc:format>
        <dc:type
           rdf:resource="http://purl.org/dc/dcmitype/StillImage" />
        <dc:title />
      </cc:Work>
    </rdf:RDF>
  </metadata>
  <path
     id="path3170-4"
     d="m10 4c-4.416 0-8 3.584-8 8 0 4.416 3.584 8 8 8 4.416 0 8-3.584 8-8 0-4.416-3.584-8-8-8zm0 5c1.656 0 3 1.344 3 3s-1.344 3-3 3-3-1.344-3-3c1e-7 -1.656 1.344-3 3-3z"
     style="fill-rule:evenodd;opacity:.3" />
  <path
     id="path3170"
     d="m10 3c-4.416 0-8 3.584-8 8 0 4.416 3.584 8 8 8 4.416 0 8-3.584 8-8 0-4.416-3.584-8-8-8zm0 5c1.656 1e-7 3 1.344 3 3s-1.344 3-3 3-3-1.344-3-3c1e-7 -1.656 1.344-3 3-3z"
     style="fill-rule:evenodd;fill:#ff0000;opacity:1" />
  <path
     id="path3288"
     d="m10 3v5c0.29576 0 0.57435 0.075908 0.84375 0.15625l1.5938-4.7812c-0.77034-0.24701-1.5857-0.375-2.4375-0.375z"
     style="fill:#000000" />
</svg>
