<?xml version="1.0" encoding="UTF-8" standalone="no"?>
<!-- Created with Inkscape (http://www.inkscape.org/) -->

<svg
   xmlns:dc="http://purl.org/dc/elements/1.1/"
   xmlns:cc="http://creativecommons.org/ns#"
   xmlns:rdf="http://www.w3.org/1999/02/22-rdf-syntax-ns#"
   xmlns:svg="http://www.w3.org/2000/svg"
   xmlns="http://www.w3.org/2000/svg"
   xmlns:sodipodi="http://sodipodi.sourceforge.net/DTD/sodipodi-0.dtd"
   xmlns:inkscape="http://www.inkscape.org/namespaces/inkscape"
   id="svg3211"
   width="22"
   height="22"
   version="1.0"
   sodipodi:docname="system-restart-panel.svg"
   inkscape:version="0.92.4 (33fec40, 2019-01-16)">
  <defs
     id="defs4867" />
  <sodipodi:namedview
     pagecolor="#ffffff"
     bordercolor="#666666"
     borderopacity="1"
     objecttolerance="10"
     gridtolerance="10"
     guidetolerance="10"
     inkscape:pageopacity="0"
     inkscape:pageshadow="2"
     inkscape:window-width="640"
     inkscape:window-height="480"
     id="namedview4865"
     showgrid="false"
     inkscape:zoom="10.727273"
     inkscape:cx="11"
     inkscape:cy="11"
     inkscape:window-x="0"
     inkscape:window-y="27"
     inkscape:window-maximized="0"
     inkscape:current-layer="svg3211" />
  <metadata
     id="metadata14">
    <rdf:RDF>
      <cc:Work
         rdf:about="">
        <dc:format>image/svg+xml</dc:format>
        <dc:type
           rdf:resource="http://purl.org/dc/dcmitype/StillImage" />
        <dc:title />
      </cc:Work>
    </rdf:RDF>
  </metadata>
  <path
     id="path3224"
     d="m11 5v2c-3.312 0-6 2.688-6 6s2.688 6 6 6 6-2.688 6-6h-2c0 2.208-1.792 4-4 4-2.208 0-4-1.792-4-4s1.792-4 4-4v2l5-3-5-3z"
     style="fill-rule:evenodd;opacity:.3" />
  <path
     id="path4199"
     d="m11 4v2c-3.312 0-6 2.688-6 6 0 3.312 2.688 6 6 6s6-2.688 6-6h-2c0 2.208-1.792 4-4 4-2.208 0-4-1.792-4-4s1.792-4 4-4v2l5-3-5-3z"
     style="fill-rule:evenodd;fill:#ff0000" />
</svg>
